<?xml version="1.0" encoding="utf-8"?>
<!-- Generator: Adobe Illustrator 21.1.0, SVG Export Plug-In . SVG Version: 6.00 Build 0)  -->
<svg version="1.1" id="Layer_1" xmlns="http://www.w3.org/2000/svg" xmlns:xlink="http://www.w3.org/1999/xlink" x="0px" y="0px"
	 viewBox="0 0 360 360" style="enable-background:new 0 0 360 360;" xml:space="preserve">
<style type="text/css">
	.st0{fill:#08446D;}
	.st1{fill:#00233F;}
	.st2{fill:#22EFAB;}
	.st3{fill:#0DD396;}
	.st4{fill:#C6640C;}
	.st5{fill:#5A8CA8;}
</style>
<g>
	<g>
		<polygon class="st0" points="311.2,360 0,360 0,280.5 45.8,238.1 311.2,238.1 		"/>
		<rect x="122" class="st0" width="42.7" height="34.8"/>
	</g>
	<polyline class="st1" points="122,0 164.7,0 164.7,34.8 	"/>
	<rect x="85.4" y="11.6" class="st0" width="115.9" height="116.1"/>
	<g>
		<polyline class="st1" points="85.4,11.6 201.4,11.6 201.4,127.7 		"/>
		<rect x="61" y="52.3" class="st1" width="164.7" height="307.7"/>
	</g>
	<rect x="128.1" y="81.3" class="st2" width="30.5" height="29"/>
	<polyline class="st3" points="158.6,81.3 158.6,110.3 128.1,110.3 	"/>
	<rect x="128.1" y="121.9" class="st2" width="30.5" height="29"/>
	<polyline class="st3" points="158.6,121.9 158.6,151 128.1,151 	"/>
	<rect x="128.1" y="162.6" class="st2" width="30.5" height="29"/>
	<polyline class="st3" points="158.6,162.6 158.6,191.6 128.1,191.6 	"/>
	<rect x="128.1" y="203.2" class="st2" width="30.5" height="29"/>
	<polyline class="st3" points="158.6,203.2 158.6,232.3 128.1,232.3 	"/>
	<rect x="128.1" y="243.9" class="st2" width="30.5" height="29"/>
	<polyline class="st3" points="158.6,243.9 158.6,272.9 128.1,272.9 	"/>
	<rect x="85.4" y="121.9" class="st2" width="30.5" height="29"/>
	<polyline class="st3" points="115.9,121.9 115.9,151 85.4,151 	"/>
	<rect x="85.4" y="162.6" class="st2" width="30.5" height="29"/>
	<polyline class="st3" points="115.9,162.6 115.9,191.6 85.4,191.6 	"/>
	<rect x="85.4" y="203.2" class="st2" width="30.5" height="29"/>
	<polyline class="st3" points="115.9,203.2 115.9,232.3 85.4,232.3 	"/>
	<rect x="85.4" y="243.9" class="st2" width="30.5" height="29"/>
	<polyline class="st3" points="115.9,243.9 115.9,272.9 85.4,272.9 	"/>
	<rect x="85.4" y="81.3" class="st2" width="30.5" height="29"/>
	<polyline class="st3" points="115.9,81.3 115.9,110.3 85.4,110.3 	"/>
	<rect x="170.8" y="81.3" class="st2" width="30.5" height="29"/>
	<polyline class="st3" points="201.4,81.3 201.4,110.3 170.8,110.3 	"/>
	<rect x="170.8" y="121.9" class="st2" width="30.5" height="29"/>
	<polyline class="st3" points="201.4,121.9 201.4,151 170.8,151 	"/>
	<rect x="170.8" y="162.6" class="st2" width="30.5" height="29"/>
	<polyline class="st3" points="201.4,162.6 201.4,191.6 170.8,191.6 	"/>
	<rect x="170.8" y="203.2" class="st2" width="30.5" height="29"/>
	<polyline class="st3" points="201.4,203.2 201.4,232.3 170.8,232.3 	"/>
	<rect x="170.8" y="243.9" class="st2" width="30.5" height="29"/>
	<polyline class="st3" points="201.4,243.9 201.4,272.9 170.8,272.9 	"/>
	<path class="st4" d="M164.7,354.2v-45.9c0-4.1-4.3-6.4-8.5-6.4H130c-4.3,0-7.9,2.9-7.9,6.4v45.9H164.7z"/>
	<g>
		<rect x="244.1" y="145.2" class="st0" width="115.9" height="214.8"/>
		<rect x="262.4" y="110.3" class="st0" width="79.3" height="81.3"/>
		<rect x="280.7" y="69.7" class="st0" width="42.7" height="75.5"/>
		<polygon class="st0" points="277.6,149.2 302,7.5 326.4,149.2 302,172.5 		"/>
	</g>
	<g>
		<rect x="268.5" y="168.4" class="st5" width="6.1" height="168.4"/>
		<rect x="299" y="168.4" class="st5" width="6.1" height="168.4"/>
		<rect x="323.4" y="168.4" class="st5" width="6.1" height="168.4"/>
	</g>
	<g>
	</g>
	<g>
	</g>
	<g>
	</g>
	<g>
	</g>
	<g>
	</g>
	<g>
	</g>
	<g>
	</g>
	<g>
	</g>
	<g>
	</g>
	<g>
	</g>
	<g>
	</g>
	<g>
	</g>
	<g>
	</g>
	<g>
	</g>
	<g>
	</g>
</g>
</svg>
